<svg viewBox="0 0 150 150" xmlns="http://www.w3.org/2000/svg">
  <path
    d="M148.554 93.1201L127.759 76.7775C126.487 75.7801 126.487 74.1422 127.759 73.1417L148.555 56.8031C149.831 55.8037 150.365 54.1149 149.742 53.0526C149.117 51.9933 147.374 51.6163 145.871 52.2147L121.144 62.0638C119.641 62.6683 118.224 61.8444 117.999 60.2384L114.28 33.8403C114.051 32.2354 112.844 30.9217 111.594 30.9217C110.35 30.9217 109.144 32.2354 108.921 33.8393L105.2 60.2394C104.973 61.8454 103.559 62.6673 102.053 62.0648L77.7351 52.3793C76.2269 51.7789 73.7701 51.7789 72.2659 52.3793L47.9435 62.0648C46.4393 62.6673 45.0229 61.8454 44.7975 60.2394L41.0819 33.8393C40.8525 32.2354 39.6475 30.9217 38.4027 30.9217C37.1539 30.9217 35.9459 32.2354 35.7215 33.8393L32.0009 60.2394C31.7755 61.8454 30.3601 62.6673 28.8559 62.0648L4.12953 52.2177C2.62634 51.6163 0.885745 51.9953 0.261327 53.0536C-0.362093 54.1169 0.16956 55.8066 1.44234 56.8041L22.2396 73.1427C23.5134 74.1432 23.5134 75.781 22.2396 76.7795L1.44234 93.1201C0.16557 94.1196 -0.363091 95.9091 0.259332 97.0941C0.884748 98.281 2.62534 98.7578 4.12653 98.1554L28.6315 88.3143C30.1376 87.7128 31.5381 88.5317 31.7486 90.1377L35.2836 116.766C35.4971 118.369 36.8975 119.682 38.3957 119.682C39.8919 119.682 41.2934 118.37 41.5078 116.766L45.0489 90.1377C45.2583 88.5317 46.6648 87.7138 48.163 88.3143L72.2659 97.9878C73.7681 98.5923 76.2259 98.5923 77.7291 97.9878L101.828 88.3143C103.328 87.7128 104.731 88.5317 104.945 90.1377L108.486 116.766C108.698 118.369 110.099 119.682 111.593 119.682C113.091 119.682 114.493 118.37 114.705 116.766L118.246 90.1377C118.462 88.5317 119.862 87.7138 121.363 88.3143L145.87 98.1554C147.367 98.7578 149.112 98.2801 149.737 97.0951C150.362 95.9121 149.83 94.1226 148.555 93.1231L148.554 93.1201ZM95.6477 76.985L77.3341 91.0843C76.0523 92.0718 73.9496 92.0718 72.6719 91.0843L54.3523 76.985C53.0715 75.9975 53.0616 74.3716 54.3323 73.3692L72.6858 58.9128C73.9566 57.9103 76.0404 57.9103 77.3121 58.9128L95.6656 73.3692C96.9394 74.3706 96.9294 75.9965 95.6457 76.986L95.6477 76.985Z"
  />
</svg>
